<mxfile host="app.diagrams.net" modified="2023-05-30T18:16:59.957Z" agent="Mozilla/5.0 (Windows NT 10.0; Win64; x64) AppleWebKit/537.36 (KHTML, like Gecko) Chrome/113.0.0.0 Safari/537.36" etag="Zy2Kititl3qYYl1rs0Vv" version="21.3.5" type="github">
  <diagram name="Page-1" id="C7cy3X1AEMmLUQjfhyzZ">
    <mxGraphModel dx="3078" dy="998" grid="1" gridSize="10" guides="1" tooltips="1" connect="1" arrows="1" fold="1" page="1" pageScale="1" pageWidth="1169" pageHeight="827" math="0" shadow="0">
      <root>
        <mxCell id="0" />
        <mxCell id="1" parent="0" />
        <mxCell id="Si2PBlI68hbueaK7YWL5-1" value="&amp;lt;&amp;lt;Interface&amp;gt;&amp;gt;&lt;br&gt;Prototype" style="swimlane;whiteSpace=wrap;html=1;startSize=40;" vertex="1" parent="1">
          <mxGeometry x="280" y="110" width="150" height="80" as="geometry" />
        </mxCell>
        <mxCell id="Si2PBlI68hbueaK7YWL5-2" value="+clone()" style="text;html=1;align=center;verticalAlign=middle;resizable=0;points=[];autosize=1;strokeColor=none;fillColor=none;" vertex="1" parent="Si2PBlI68hbueaK7YWL5-1">
          <mxGeometry y="40" width="70" height="30" as="geometry" />
        </mxCell>
        <mxCell id="Si2PBlI68hbueaK7YWL5-39" style="edgeStyle=orthogonalEdgeStyle;rounded=0;orthogonalLoop=1;jettySize=auto;html=1;exitX=0.5;exitY=0;exitDx=0;exitDy=0;entryX=1;entryY=0.25;entryDx=0;entryDy=0;endArrow=diamondThin;endFill=0;" edge="1" parent="1" source="Si2PBlI68hbueaK7YWL5-4" target="Si2PBlI68hbueaK7YWL5-5">
          <mxGeometry relative="1" as="geometry" />
        </mxCell>
        <mxCell id="Si2PBlI68hbueaK7YWL5-41" style="edgeStyle=orthogonalEdgeStyle;rounded=0;orthogonalLoop=1;jettySize=auto;html=1;exitX=0.75;exitY=0;exitDx=0;exitDy=0;endArrow=block;endFill=1;dashed=1;dashPattern=12 12;" edge="1" parent="1" source="Si2PBlI68hbueaK7YWL5-4">
          <mxGeometry relative="1" as="geometry">
            <mxPoint x="379.73913043478296" y="190" as="targetPoint" />
          </mxGeometry>
        </mxCell>
        <mxCell id="Si2PBlI68hbueaK7YWL5-4" value="Command" style="swimlane;whiteSpace=wrap;html=1;startSize=23;" vertex="1" parent="1">
          <mxGeometry x="230" y="300" width="200" height="205" as="geometry" />
        </mxCell>
        <mxCell id="Si2PBlI68hbueaK7YWL5-26" value="- products:&amp;nbsp; Product[]" style="text;html=1;align=center;verticalAlign=middle;resizable=0;points=[];autosize=1;strokeColor=none;fillColor=none;" vertex="1" parent="Si2PBlI68hbueaK7YWL5-4">
          <mxGeometry y="20" width="130" height="30" as="geometry" />
        </mxCell>
        <mxCell id="Si2PBlI68hbueaK7YWL5-27" value="- totalPrice : float" style="text;html=1;align=center;verticalAlign=middle;resizable=0;points=[];autosize=1;strokeColor=none;fillColor=none;" vertex="1" parent="Si2PBlI68hbueaK7YWL5-4">
          <mxGeometry y="40" width="110" height="30" as="geometry" />
        </mxCell>
        <mxCell id="Si2PBlI68hbueaK7YWL5-28" value="- type : Enum" style="text;html=1;align=center;verticalAlign=middle;resizable=0;points=[];autosize=1;strokeColor=none;fillColor=none;" vertex="1" parent="Si2PBlI68hbueaK7YWL5-4">
          <mxGeometry y="60" width="90" height="30" as="geometry" />
        </mxCell>
        <mxCell id="Si2PBlI68hbueaK7YWL5-31" value="+clone() : Command" style="text;html=1;align=center;verticalAlign=middle;resizable=0;points=[];autosize=1;strokeColor=none;fillColor=none;" vertex="1" parent="Si2PBlI68hbueaK7YWL5-4">
          <mxGeometry y="85" width="130" height="30" as="geometry" />
        </mxCell>
        <mxCell id="Si2PBlI68hbueaK7YWL5-32" value="+getTotalPrice() : float" style="text;html=1;align=center;verticalAlign=middle;resizable=0;points=[];autosize=1;strokeColor=none;fillColor=none;" vertex="1" parent="Si2PBlI68hbueaK7YWL5-4">
          <mxGeometry y="100" width="140" height="30" as="geometry" />
        </mxCell>
        <mxCell id="Si2PBlI68hbueaK7YWL5-33" value="+getProducts() : Product[]" style="text;html=1;align=center;verticalAlign=middle;resizable=0;points=[];autosize=1;strokeColor=none;fillColor=none;" vertex="1" parent="Si2PBlI68hbueaK7YWL5-4">
          <mxGeometry y="115" width="160" height="30" as="geometry" />
        </mxCell>
        <mxCell id="Si2PBlI68hbueaK7YWL5-34" value="+addProduct() : void" style="text;html=1;align=center;verticalAlign=middle;resizable=0;points=[];autosize=1;strokeColor=none;fillColor=none;" vertex="1" parent="Si2PBlI68hbueaK7YWL5-4">
          <mxGeometry y="130" width="130" height="30" as="geometry" />
        </mxCell>
        <mxCell id="Si2PBlI68hbueaK7YWL5-35" value="+getType() : Enum" style="text;html=1;align=center;verticalAlign=middle;resizable=0;points=[];autosize=1;strokeColor=none;fillColor=none;" vertex="1" parent="Si2PBlI68hbueaK7YWL5-4">
          <mxGeometry y="145" width="120" height="30" as="geometry" />
        </mxCell>
        <mxCell id="Si2PBlI68hbueaK7YWL5-36" value="+setTime() : void" style="text;html=1;align=center;verticalAlign=middle;resizable=0;points=[];autosize=1;strokeColor=none;fillColor=none;" vertex="1" parent="Si2PBlI68hbueaK7YWL5-4">
          <mxGeometry y="160" width="110" height="30" as="geometry" />
        </mxCell>
        <mxCell id="Si2PBlI68hbueaK7YWL5-37" value="+removeProduct() : void" style="text;html=1;align=center;verticalAlign=middle;resizable=0;points=[];autosize=1;strokeColor=none;fillColor=none;" vertex="1" parent="Si2PBlI68hbueaK7YWL5-4">
          <mxGeometry y="175" width="150" height="30" as="geometry" />
        </mxCell>
        <mxCell id="Si2PBlI68hbueaK7YWL5-5" value="CommandRegistry" style="swimlane;whiteSpace=wrap;html=1;" vertex="1" parent="1">
          <mxGeometry x="-40" y="230" width="230" height="142" as="geometry" />
        </mxCell>
        <mxCell id="Si2PBlI68hbueaK7YWL5-22" value="-commands: Command[]" style="text;html=1;align=center;verticalAlign=middle;resizable=0;points=[];autosize=1;strokeColor=none;fillColor=none;" vertex="1" parent="Si2PBlI68hbueaK7YWL5-5">
          <mxGeometry y="20" width="150" height="30" as="geometry" />
        </mxCell>
        <mxCell id="Si2PBlI68hbueaK7YWL5-23" value="+addCommand(Command) : void" style="text;html=1;align=center;verticalAlign=middle;resizable=0;points=[];autosize=1;strokeColor=none;fillColor=none;" vertex="1" parent="Si2PBlI68hbueaK7YWL5-5">
          <mxGeometry x="-10" y="50" width="200" height="30" as="geometry" />
        </mxCell>
        <mxCell id="Si2PBlI68hbueaK7YWL5-24" value="+getCommandByType() : Command)" style="text;html=1;align=center;verticalAlign=middle;resizable=0;points=[];autosize=1;strokeColor=none;fillColor=none;" vertex="1" parent="Si2PBlI68hbueaK7YWL5-5">
          <mxGeometry x="-10" y="70" width="220" height="30" as="geometry" />
        </mxCell>
        <mxCell id="Si2PBlI68hbueaK7YWL5-25" value="+removeCommandByType(): void" style="text;html=1;align=center;verticalAlign=middle;resizable=0;points=[];autosize=1;strokeColor=none;fillColor=none;" vertex="1" parent="Si2PBlI68hbueaK7YWL5-5">
          <mxGeometry x="-10" y="90" width="200" height="30" as="geometry" />
        </mxCell>
        <mxCell id="Si2PBlI68hbueaK7YWL5-6" value="Product" style="swimlane;whiteSpace=wrap;html=1;startSize=23;" vertex="1" parent="1">
          <mxGeometry x="740" y="160" width="200" height="90" as="geometry" />
        </mxCell>
        <mxCell id="Si2PBlI68hbueaK7YWL5-47" value="- price : float" style="text;html=1;align=center;verticalAlign=middle;resizable=0;points=[];autosize=1;strokeColor=none;fillColor=none;" vertex="1" parent="Si2PBlI68hbueaK7YWL5-6">
          <mxGeometry x="-10" y="25" width="90" height="30" as="geometry" />
        </mxCell>
        <mxCell id="Si2PBlI68hbueaK7YWL5-48" value="+getPrice()" style="text;html=1;align=center;verticalAlign=middle;resizable=0;points=[];autosize=1;strokeColor=none;fillColor=none;" vertex="1" parent="Si2PBlI68hbueaK7YWL5-6">
          <mxGeometry x="-5" y="60" width="80" height="30" as="geometry" />
        </mxCell>
        <mxCell id="Si2PBlI68hbueaK7YWL5-71" style="edgeStyle=orthogonalEdgeStyle;rounded=0;orthogonalLoop=1;jettySize=auto;html=1;exitX=0.5;exitY=0;exitDx=0;exitDy=0;endArrow=block;endFill=0;" edge="1" parent="1" source="Si2PBlI68hbueaK7YWL5-7">
          <mxGeometry relative="1" as="geometry">
            <mxPoint x="850.5" y="250" as="targetPoint" />
          </mxGeometry>
        </mxCell>
        <mxCell id="Si2PBlI68hbueaK7YWL5-7" value="BirthdayPancake" style="swimlane;whiteSpace=wrap;html=1;" vertex="1" parent="1">
          <mxGeometry x="750" y="304" width="200" height="216" as="geometry" />
        </mxCell>
        <mxCell id="Si2PBlI68hbueaK7YWL5-67" value="-&amp;nbsp; waffles :&amp;nbsp; Ingredient" style="text;html=1;align=center;verticalAlign=middle;resizable=0;points=[];autosize=1;strokeColor=none;fillColor=none;" vertex="1" parent="Si2PBlI68hbueaK7YWL5-7">
          <mxGeometry y="22" width="140" height="30" as="geometry" />
        </mxCell>
        <mxCell id="Si2PBlI68hbueaK7YWL5-66" value="-&amp;nbsp; crispyBacon:&amp;nbsp; Ingredient" style="text;html=1;align=center;verticalAlign=middle;resizable=0;points=[];autosize=1;strokeColor=none;fillColor=none;" vertex="1" parent="Si2PBlI68hbueaK7YWL5-7">
          <mxGeometry y="42" width="160" height="30" as="geometry" />
        </mxCell>
        <mxCell id="Si2PBlI68hbueaK7YWL5-65" value="- bonus :&amp;nbsp; Ingredient" style="text;html=1;align=center;verticalAlign=middle;resizable=0;points=[];autosize=1;strokeColor=none;fillColor=none;" vertex="1" parent="Si2PBlI68hbueaK7YWL5-7">
          <mxGeometry x="5" y="66" width="130" height="30" as="geometry" />
        </mxCell>
        <mxCell id="Si2PBlI68hbueaK7YWL5-64" value="- drink&amp;nbsp; :&amp;nbsp; Ingredient" style="text;html=1;align=center;verticalAlign=middle;resizable=0;points=[];autosize=1;strokeColor=none;fillColor=none;" vertex="1" parent="Si2PBlI68hbueaK7YWL5-7">
          <mxGeometry y="85" width="130" height="30" as="geometry" />
        </mxCell>
        <mxCell id="Si2PBlI68hbueaK7YWL5-44" value="" style="endArrow=none;html=1;rounded=0;exitX=0.015;exitY=1.017;exitDx=0;exitDy=0;exitPerimeter=0;" edge="1" parent="Si2PBlI68hbueaK7YWL5-7" source="Si2PBlI68hbueaK7YWL5-64">
          <mxGeometry width="50" height="50" relative="1" as="geometry">
            <mxPoint y="130" as="sourcePoint" />
            <mxPoint x="200" y="116" as="targetPoint" />
            <Array as="points" />
          </mxGeometry>
        </mxCell>
        <mxCell id="Si2PBlI68hbueaK7YWL5-73" value="+setWaffles () : void" style="text;html=1;align=center;verticalAlign=middle;resizable=0;points=[];autosize=1;strokeColor=none;fillColor=none;" vertex="1" parent="Si2PBlI68hbueaK7YWL5-7">
          <mxGeometry y="115" width="130" height="30" as="geometry" />
        </mxCell>
        <mxCell id="Si2PBlI68hbueaK7YWL5-74" value="+setCrispyBacon() : void" style="text;html=1;align=center;verticalAlign=middle;resizable=0;points=[];autosize=1;strokeColor=none;fillColor=none;" vertex="1" parent="Si2PBlI68hbueaK7YWL5-7">
          <mxGeometry y="140" width="150" height="30" as="geometry" />
        </mxCell>
        <mxCell id="Si2PBlI68hbueaK7YWL5-72" value="+setBonus () : void" style="text;html=1;align=center;verticalAlign=middle;resizable=0;points=[];autosize=1;strokeColor=none;fillColor=none;" vertex="1" parent="Si2PBlI68hbueaK7YWL5-7">
          <mxGeometry y="158" width="120" height="30" as="geometry" />
        </mxCell>
        <mxCell id="Si2PBlI68hbueaK7YWL5-77" value="+setDrink () : void" style="text;html=1;align=center;verticalAlign=middle;resizable=0;points=[];autosize=1;strokeColor=none;fillColor=none;" vertex="1" parent="Si2PBlI68hbueaK7YWL5-7">
          <mxGeometry y="176" width="120" height="30" as="geometry" />
        </mxCell>
        <mxCell id="Si2PBlI68hbueaK7YWL5-70" style="edgeStyle=orthogonalEdgeStyle;rounded=0;orthogonalLoop=1;jettySize=auto;html=1;exitX=0.5;exitY=0;exitDx=0;exitDy=0;endArrow=block;endFill=0;" edge="1" parent="1" source="Si2PBlI68hbueaK7YWL5-8">
          <mxGeometry relative="1" as="geometry">
            <mxPoint x="750" y="250" as="targetPoint" />
          </mxGeometry>
        </mxCell>
        <mxCell id="Si2PBlI68hbueaK7YWL5-8" value="SweetSet" style="swimlane;whiteSpace=wrap;html=1;" vertex="1" parent="1">
          <mxGeometry x="500" y="305" width="200" height="216.5" as="geometry" />
        </mxCell>
        <mxCell id="Si2PBlI68hbueaK7YWL5-55" value="- secretMixture : Ingredient" style="text;html=1;align=center;verticalAlign=middle;resizable=0;points=[];autosize=1;strokeColor=none;fillColor=none;" vertex="1" parent="Si2PBlI68hbueaK7YWL5-8">
          <mxGeometry x="-10" y="26.5" width="170" height="30" as="geometry" />
        </mxCell>
        <mxCell id="Si2PBlI68hbueaK7YWL5-56" value="- syrop : Ingredient" style="text;html=1;align=center;verticalAlign=middle;resizable=0;points=[];autosize=1;strokeColor=none;fillColor=none;" vertex="1" parent="Si2PBlI68hbueaK7YWL5-8">
          <mxGeometry x="-5" y="42" width="120" height="30" as="geometry" />
        </mxCell>
        <mxCell id="Si2PBlI68hbueaK7YWL5-57" value="- sprinkles : Ingredient" style="text;html=1;align=center;verticalAlign=middle;resizable=0;points=[];autosize=1;strokeColor=none;fillColor=none;" vertex="1" parent="Si2PBlI68hbueaK7YWL5-8">
          <mxGeometry x="-5" y="64" width="140" height="30" as="geometry" />
        </mxCell>
        <mxCell id="Si2PBlI68hbueaK7YWL5-58" value="-strawberries :&amp;nbsp; Ingredient" style="text;html=1;align=center;verticalAlign=middle;resizable=0;points=[];autosize=1;strokeColor=none;fillColor=none;" vertex="1" parent="Si2PBlI68hbueaK7YWL5-8">
          <mxGeometry x="-5" y="85" width="160" height="30" as="geometry" />
        </mxCell>
        <mxCell id="Si2PBlI68hbueaK7YWL5-59" value="+setSecretMixture() : void" style="text;html=1;align=center;verticalAlign=middle;resizable=0;points=[];autosize=1;strokeColor=none;fillColor=none;" vertex="1" parent="Si2PBlI68hbueaK7YWL5-8">
          <mxGeometry x="-5" y="115" width="160" height="30" as="geometry" />
        </mxCell>
        <mxCell id="Si2PBlI68hbueaK7YWL5-60" value="+setSyrop() : void" style="text;html=1;align=center;verticalAlign=middle;resizable=0;points=[];autosize=1;strokeColor=none;fillColor=none;" vertex="1" parent="Si2PBlI68hbueaK7YWL5-8">
          <mxGeometry x="-10" y="136.5" width="120" height="30" as="geometry" />
        </mxCell>
        <mxCell id="Si2PBlI68hbueaK7YWL5-61" value="+setSprinkles() : void" style="text;html=1;align=center;verticalAlign=middle;resizable=0;points=[];autosize=1;strokeColor=none;fillColor=none;" vertex="1" parent="Si2PBlI68hbueaK7YWL5-8">
          <mxGeometry x="-10" y="156.5" width="140" height="30" as="geometry" />
        </mxCell>
        <mxCell id="Si2PBlI68hbueaK7YWL5-62" value="+setStrawberries() : void" style="text;html=1;align=center;verticalAlign=middle;resizable=0;points=[];autosize=1;strokeColor=none;fillColor=none;" vertex="1" parent="Si2PBlI68hbueaK7YWL5-8">
          <mxGeometry x="-5" y="176.5" width="150" height="30" as="geometry" />
        </mxCell>
        <mxCell id="Si2PBlI68hbueaK7YWL5-43" value="" style="endArrow=none;html=1;rounded=0;" edge="1" parent="Si2PBlI68hbueaK7YWL5-8">
          <mxGeometry width="50" height="50" relative="1" as="geometry">
            <mxPoint y="107.62" as="sourcePoint" />
            <mxPoint x="200" y="107.62" as="targetPoint" />
            <Array as="points">
              <mxPoint x="100" y="107.62" />
            </Array>
          </mxGeometry>
        </mxCell>
        <mxCell id="Si2PBlI68hbueaK7YWL5-16" style="edgeStyle=orthogonalEdgeStyle;rounded=0;orthogonalLoop=1;jettySize=auto;html=1;exitX=0.5;exitY=0;exitDx=0;exitDy=0;entryX=1;entryY=1;entryDx=0;entryDy=0;endArrow=block;endFill=0;" edge="1" parent="1" source="Si2PBlI68hbueaK7YWL5-9" target="Si2PBlI68hbueaK7YWL5-6">
          <mxGeometry relative="1" as="geometry" />
        </mxCell>
        <mxCell id="Si2PBlI68hbueaK7YWL5-20" style="edgeStyle=orthogonalEdgeStyle;rounded=0;orthogonalLoop=1;jettySize=auto;html=1;exitX=1;exitY=0.5;exitDx=0;exitDy=0;entryX=0.5;entryY=1;entryDx=0;entryDy=0;dashed=1;dashPattern=8 8;endArrow=block;endFill=1;" edge="1" parent="1" source="Si2PBlI68hbueaK7YWL5-9" target="Si2PBlI68hbueaK7YWL5-13">
          <mxGeometry relative="1" as="geometry" />
        </mxCell>
        <mxCell id="Si2PBlI68hbueaK7YWL5-9" value="FijiWater" style="swimlane;whiteSpace=wrap;html=1;startSize=23;" vertex="1" parent="1">
          <mxGeometry x="980" y="310" width="160" height="130" as="geometry" />
        </mxCell>
        <mxCell id="Si2PBlI68hbueaK7YWL5-45" value="" style="endArrow=none;html=1;rounded=0;exitX=0;exitY=0.5;exitDx=0;exitDy=0;" edge="1" parent="Si2PBlI68hbueaK7YWL5-9">
          <mxGeometry width="50" height="50" relative="1" as="geometry">
            <mxPoint y="76" as="sourcePoint" />
            <mxPoint x="160" y="76" as="targetPoint" />
          </mxGeometry>
        </mxCell>
        <mxCell id="Si2PBlI68hbueaK7YWL5-50" value="- volume" style="text;html=1;align=center;verticalAlign=middle;resizable=0;points=[];autosize=1;strokeColor=none;fillColor=none;" vertex="1" parent="Si2PBlI68hbueaK7YWL5-9">
          <mxGeometry y="26" width="70" height="30" as="geometry" />
        </mxCell>
        <mxCell id="Si2PBlI68hbueaK7YWL5-51" value="- type : Enum" style="text;html=1;align=center;verticalAlign=middle;resizable=0;points=[];autosize=1;strokeColor=none;fillColor=none;" vertex="1" parent="Si2PBlI68hbueaK7YWL5-9">
          <mxGeometry y="46" width="90" height="30" as="geometry" />
        </mxCell>
        <mxCell id="Si2PBlI68hbueaK7YWL5-52" value="+setType() : void" style="text;html=1;align=center;verticalAlign=middle;resizable=0;points=[];autosize=1;strokeColor=none;fillColor=none;" vertex="1" parent="Si2PBlI68hbueaK7YWL5-9">
          <mxGeometry y="80" width="110" height="30" as="geometry" />
        </mxCell>
        <mxCell id="Si2PBlI68hbueaK7YWL5-53" value="+getType() : Enum" style="text;html=1;align=center;verticalAlign=middle;resizable=0;points=[];autosize=1;strokeColor=none;fillColor=none;" vertex="1" parent="Si2PBlI68hbueaK7YWL5-9">
          <mxGeometry y="104" width="120" height="30" as="geometry" />
        </mxCell>
        <mxCell id="Si2PBlI68hbueaK7YWL5-17" style="edgeStyle=orthogonalEdgeStyle;rounded=0;orthogonalLoop=1;jettySize=auto;html=1;exitX=0;exitY=0.5;exitDx=0;exitDy=0;endArrow=diamondThin;endFill=0;" edge="1" parent="1" source="Si2PBlI68hbueaK7YWL5-11">
          <mxGeometry relative="1" as="geometry">
            <mxPoint x="640" y="520" as="targetPoint" />
          </mxGeometry>
        </mxCell>
        <mxCell id="Si2PBlI68hbueaK7YWL5-18" style="edgeStyle=orthogonalEdgeStyle;rounded=0;orthogonalLoop=1;jettySize=auto;html=1;exitX=0.5;exitY=0;exitDx=0;exitDy=0;endArrow=diamond;endFill=0;strokeWidth=1;" edge="1" parent="1" source="Si2PBlI68hbueaK7YWL5-11">
          <mxGeometry relative="1" as="geometry">
            <mxPoint x="810" y="520" as="targetPoint" />
          </mxGeometry>
        </mxCell>
        <mxCell id="Si2PBlI68hbueaK7YWL5-11" value="Ingredient" style="swimlane;whiteSpace=wrap;html=1;" vertex="1" parent="1">
          <mxGeometry x="700" y="620" width="130" height="60" as="geometry" />
        </mxCell>
        <mxCell id="Si2PBlI68hbueaK7YWL5-69" style="edgeStyle=orthogonalEdgeStyle;rounded=0;orthogonalLoop=1;jettySize=auto;html=1;exitX=0.25;exitY=0;exitDx=0;exitDy=0;entryX=0.75;entryY=1;entryDx=0;entryDy=0;endArrow=diamondThin;endFill=0;" edge="1" parent="1" source="Si2PBlI68hbueaK7YWL5-12" target="Si2PBlI68hbueaK7YWL5-7">
          <mxGeometry relative="1" as="geometry" />
        </mxCell>
        <mxCell id="Si2PBlI68hbueaK7YWL5-12" value="Bonus" style="swimlane;whiteSpace=wrap;html=1;" vertex="1" parent="1">
          <mxGeometry x="960" y="590" width="110" height="50" as="geometry" />
        </mxCell>
        <mxCell id="Si2PBlI68hbueaK7YWL5-13" value="&amp;lt;&amp;lt;Interface&amp;gt;&amp;gt;&lt;br&gt;Beverage" style="swimlane;whiteSpace=wrap;html=1;startSize=30;" vertex="1" parent="1">
          <mxGeometry x="1190" y="160" width="160" height="80" as="geometry" />
        </mxCell>
        <mxCell id="Si2PBlI68hbueaK7YWL5-49" value="+getVolume() : float" style="text;html=1;align=center;verticalAlign=middle;resizable=0;points=[];autosize=1;strokeColor=none;fillColor=none;" vertex="1" parent="Si2PBlI68hbueaK7YWL5-13">
          <mxGeometry x="-10" y="40" width="130" height="30" as="geometry" />
        </mxCell>
        <mxCell id="Si2PBlI68hbueaK7YWL5-21" value="" style="endArrow=none;html=1;rounded=0;" edge="1" parent="1">
          <mxGeometry width="50" height="50" relative="1" as="geometry">
            <mxPoint x="-40" y="280" as="sourcePoint" />
            <mxPoint x="190" y="280" as="targetPoint" />
            <Array as="points">
              <mxPoint x="75" y="280" />
            </Array>
          </mxGeometry>
        </mxCell>
        <mxCell id="Si2PBlI68hbueaK7YWL5-29" value="" style="endArrow=none;html=1;rounded=0;exitX=-0.002;exitY=0.873;exitDx=0;exitDy=0;exitPerimeter=0;" edge="1" parent="1" source="Si2PBlI68hbueaK7YWL5-28">
          <mxGeometry width="50" height="50" relative="1" as="geometry">
            <mxPoint x="390" y="340" as="sourcePoint" />
            <mxPoint x="430" y="386" as="targetPoint" />
          </mxGeometry>
        </mxCell>
        <mxCell id="Si2PBlI68hbueaK7YWL5-40" value="1...*" style="text;html=1;align=center;verticalAlign=middle;resizable=0;points=[];autosize=1;strokeColor=none;fillColor=none;" vertex="1" parent="1">
          <mxGeometry x="290" y="270" width="40" height="30" as="geometry" />
        </mxCell>
        <mxCell id="Si2PBlI68hbueaK7YWL5-42" value="" style="endArrow=none;html=1;rounded=0;" edge="1" parent="1">
          <mxGeometry width="50" height="50" relative="1" as="geometry">
            <mxPoint x="740" y="220" as="sourcePoint" />
            <mxPoint x="940" y="220" as="targetPoint" />
          </mxGeometry>
        </mxCell>
      </root>
    </mxGraphModel>
  </diagram>
</mxfile>
